# xmcd
#
# Track frame offsets: 
#        150
#        10258
#        27810
#        41345
#        59562
#        74693
#        91740
#        103252
#        115597
#        139102
#        152211
#        167161
#        184795
#        204399
#
# Disc length: 2858 seconds
#
# Revision: 1
# Processed by: cddbd v1.5.2PL0 Copyright (c) Steve Scherf et al.
# Submitted via: ExactAudioCopy v1.1
#
DISCID=bc0b280e
DTITLE=Andy Fairweather Low - The Very Best of Andy Fairweather Low - 
DTITLE=The Low Rider
DYEAR=2008
DGENRE=
TTITLE0=Bend Me Shape Me
TTITLE1=Reggae Tune
TTITLE2=Spider Jiving
TTITLE3=Wide Eyed And Legless
TTITLE4=Champagne Melody
TTITLE5=La Booga Rooga
TTITLE6=Hello Susie
TTITLE7=Natural Sinner
TTITLE8=Gin House Blues
TTITLE9=(If Paradise Is) Half As Nice
TTITLE10=Hymn 4 My Soul
TTITLE11=I Don't Need
TTITLE12=Ashes And Diamonds
TTITLE13=When You're Smiling
EXTD=
EXTT0=
EXTT1=
EXTT2=
EXTT3=
EXTT4=
EXTT5=
EXTT6=
EXTT7=
EXTT8=
EXTT9=
EXTT10=
EXTT11=
EXTT12=
EXTT13=
PLAYORDER=
